<svg xmlns="http://www.w3.org/2000/svg" viewBox="0 0 1600 900" width="1600" height="900" role="img" xmlns:c2pa="http://c2pa.org/manifest"><metadata><c2pa:manifest>AAAWgmp1bWIAAAAeanVtZGMycGEAEQAQgAAAqgA4m3EDYzJwYQAAABZcanVtYgAAAEdqdW1kYzJtYQARABCAAACqADibcQN1cm46YzJwYTpmNzU2Y2RiOC03YzU2LTRiZjMtYjRlNy1mMTI0YjkxNjdmZTQAAAADl2p1bWIAAAApanVtZGMyYXMAEQAQgAAAqgA4m3EDYzJwYS5hc3NlcnRpb25zAAAAALxqdW1iAAAARGp1bWRjYm9yABEAEIAAAKoAOJtxE2MycGEuaW5ncmVkaWVudC52MwAAAAAYYzJzaOa+DdhH8ImCUZeGeB2rc/sAAABwY2JvcqNpZGM6Zm9ybWF0bWltYWdlL3N2Zyt4bWxqaW5zdGFuY2VJRHgseG1wOmlpZDo2YjkzNDFmMy1lY2E5LTQxNWEtYjc0YS05MWY1NGZhYWQ0YjZscmVsYXRpb25zaGlwaHBhcmVudE9mAAAB4mp1bWIAAABBanVtZGNib3IAEQAQgAAAqgA4m3ETYzJwYS5hY3Rpb25zLnYyAAAAABhjMnNo8keyb3t0dKBC+r2sQA1o/wAAAZljYm9yomdhY3Rpb25zgqJmYWN0aW9ua2MycGEub3BlbmVkanBhcmFtZXRlcnOha2luZ3JlZGllbnRzgaJjdXJseC1zZWxmI2p1bWJmPWMycGEuYXNzZXJ0aW9ucy9jMnBhLmluZ3JlZGllbnQudjNkaGFzaFggR0/pEBMssueFCAFwIIestX71EO/PoHCV3Uoxc2jj5R2kZmFjdGlvbngdY29tLmFudGhyb3BpYy5jbGF1ZGUucHJvdmlkZWRqcGFyYW1ldGVyc6F4H2NvbS5hbnRocm9waWMub3JpZ2luLWNvbmZpZGVuY2VndW5rbm93bmtkZXNjcmlwdGlvbnhmQ2xhdWRlIHByb3ZpZGVkIHRoaXMgZmlsZSBhdCB0aGUgcmVxdWVzdCBvZiBhIHVzZXIgYW5kIG1heSBoYXZlIGNyZWF0ZWQgb3IgbW9kaWZpZWQgdGhlIGZpbGUgY29udGVudHMubXNvZnR3YXJlQWdlbnShZG5hbWVmQ2xhdWRlcmFsbEFjdGlvbnNJbmNsdWRlZPUAAADIanVtYgAAAEBqdW1kY2JvcgARABCAAACqADibcRNjMnBhLmhhc2guZGF0YQAAAAAYYzJzaEDQQvfihI+VAl9Glf3kjb8AAACAY2JvcqVjYWxnZnNoYTI1NmNwYWRNAAAAAAAAAAAAAAAAAGRoYXNoWCDlgBARLtcDy+zh+DZyqBJBhZ5zMy4QFDbQ7Q6TzceRgWRuYW1lbmp1bWJmIG1hbmlmZXN0amV4Y2x1c2lvbnOBomVzdGFydBijZmxlbmd0aBkeBAAAAj5qdW1iAAAAJ2p1bWRjMmNsABEAEIAAAKoAOJtxA2MycGEuY2xhaW0udjIAAAACD2Nib3KlY2FsZ2ZzaGEyNTZpc2lnbmF0dXJleE1zZWxmI2p1bWJmPS9jMnBhL3VybjpjMnBhOmY3NTZjZGI4LTdjNTYtNGJmMy1iNGU3LWYxMjRiOTE2N2ZlNC9jMnBhLnNpZ25hdHVyZWppbnN0YW5jZUlEeCx4bXA6aWlkOjI5ZjMzNDRjLWQ2NGYtNDRkMy05ZWJkLTVhOTNjZWNjN2I4YnJjcmVhdGVkX2Fzc2VydGlvbnODomN1cmx4LXNlbGYjanVtYmY9YzJwYS5hc3NlcnRpb25zL2MycGEuaW5ncmVkaWVudC52M2RoYXNoWCBHT+kQEyyy54UIAXAgh6y1fvUQ78+gcJXdSjFzaOPlHaJjdXJseCpzZWxmI2p1bWJmPWMycGEuYXNzZXJ0aW9ucy9jMnBhLmFjdGlvbnMudjJkaGFzaFgggGEDz88FSuTk7dj1Eid86j9WKxMKWYNAUOzcpiB8pXqiY3VybHgpc2VsZiNqdW1iZj1jMnBhLmFzc2VydGlvbnMvYzJwYS5oYXNoLmRhdGFkaGFzaFgg/An2p0sao2TLjencCoQqiN4yoAnscQP4bns0pdGXnxx0Y2xhaW1fZ2VuZXJhdG9yX2luZm+jZG5hbWVvQW50aHJvcGljIEZpbGVzZ3ZlcnNpb25lMS4wLjBrc3BlY1ZlcnNpb25lMi40LjAAABA4anVtYgAAAChqdW1kYzJjcwARABCAAACqADibcQNjMnBhLnNpZ25hdHVyZQAAABAIY2JvctKEWQISogEmGCFZAgowggIGMIIBjaADAgECAhRA5aAK7sI50L64g/oGQgU9Z1UTADAKBggqhkjOPQQDAzBJMRcwFQYDVQQKEw5BbnRocm9waWMsIFBCQzEuMCwGA1UEAxMlQW50aHJvcGljIENvbnRlbnQgQ3JlZGVudGlhbHMgUm9vdCBDQTAeFw0yNjA4MDcxODQzNTZaFw0yODA4MDYxOTQzNTZaMEQxFzAVBgNVBAoTDkFudGhyb3BpYywgUEJDMSkwJwYDVQQDEyBBbnRocm9waWMgQ2xhdWRlIENvbnRlbnQgU2lnbmluZzBZMBMGByqGSM49AgEGCCqGSM49AwEHA0IABJh6CmvLUBgFFNU0vUKlOVtE6djd17L5SuwX0LemFisBM3dkd/3cyjxFA3Qo5S46fX0/ihY0VZ7mfb9KF703t5OjWDBWMA4GA1UdDwEB/wQEAwIHgDAVBgNVHSUEDjAMBgorBgEEAYPoXgIBMAwGA1UdEwEB/wQCMAAwHwYDVR0jBBgwFoAUzlHiBIFOZFsj+OPEz5o+nMHXXMIwCgYIKoZIzj0EAwMDZwAwZAIwMXMdFJ4BetLLVY7ORuE9noqbbAZOZn/aArXyTwFAZfKrPzxF2vPoJNf1+UCdg1XGAjBwX1zd9WGqYkqmL5SFqw1QySjr1zJfpJM9+1rdDwSPLMOPOjKuiXjoU/pUUeG9RwmhY3BhZFkNngAAAAAAAAAAAAAAAAAAAAAAAAAAAAAAAAAAAAAAAAAAAAAAAAAAAAAAAAAAAAAAAAAAAAAAAAAAAAAAAAAAAAAAAAAAAAAAAAAAAAAAAAAAAAAAAAAAAAAAAAAAAAAAAAAAAAAAAAAAAAAAAAAAAAAAAAAAAAAAAAAAAAAAAAAAAAAAAAAAAAAAAAAAAAAAAAAAAAAAAAAAAAAAAAAAAAAAAAAAAAAAAAAAAAAAAAAAAAAAAAAAAAAAAAAAAAAAAAAAAAAAAAAAAAAAAAAAAAAAAAAAAAAAAAAAAAAAAAAAAAAAAAAAAAAAAAAAAAAAAAAAAAAAAAAAAAAAAAAAAAAAAAAAAAAAAAAAAAAAAAAAAAAAAAAAAAAAAAAAAAAAAAAAAAAAAAAAAAAAAAAAAAAAAAAAAAAAAAAAAAAAAAAAAAAAAAAAAAAAAAAAAAAAAAAAAAAAAAAAAAAAAAAAAAAAAAAAAAAAAAAAAAAAAAAAAAAAAAAAAAAAAAAAAAAAAAAAAAAAAAAAAAAAAAAAAAAAAAAAAAAAAAAAAAAAAAAAAAAAAAAAAAAAAAAAAAAAAAAAAAAAAAAAAAAAAAAAAAAAAAAAAAAAAAAAAAAAAAAAAAAAAAAAAAAAAAAAAAAAAAAAAAAAAAAAAAAAAAAAAAAAAAAAAAAAAAAAAAAAAAAAAAAAAAAAAAAAAAAAAAAAAAAAAAAAAAAAAAAAAAAAAAAAAAAAAAAAAAAAAAAAAAAAAAAAAAAAAAAAAAAAAAAAAAAAAAAAAAAAAAAAAAAAAAAAAAAAAAAAAAAAAAAAAAAAAAAAAAAAAAAAAAAAAAAAAAAAAAAAAAAAAAAAAAAAAAAAAAAAAAAAAAAAAAAAAAAAAAAAAAAAAAAAAAAAAAAAAAAAAAAAAAAAAAAAAAAAAAAAAAAAAAAAAAAAAAAAAAAAAAAAAAAAAAAAAAAAAAAAAAAAAAAAAAAAAAAAAAAAAAAAAAAAAAAAAAAAAAAAAAAAAAAAAAAAAAAAAAAAAAAAAAAAAAAAAAAAAAAAAAAAAAAAAAAAAAAAAAAAAAAAAAAAAAAAAAAAAAAAAAAAAAAAAAAAAAAAAAAAAAAAAAAAAAAAAAAAAAAAAAAAAAAAAAAAAAAAAAAAAAAAAAAAAAAAAAAAAAAAAAAAAAAAAAAAAAAAAAAAAAAAAAAAAAAAAAAAAAAAAAAAAAAAAAAAAAAAAAAAAAAAAAAAAAAAAAAAAAAAAAAAAAAAAAAAAAAAAAAAAAAAAAAAAAAAAAAAAAAAAAAAAAAAAAAAAAAAAAAAAAAAAAAAAAAAAAAAAAAAAAAAAAAAAAAAAAAAAAAAAAAAAAAAAAAAAAAAAAAAAAAAAAAAAAAAAAAAAAAAAAAAAAAAAAAAAAAAAAAAAAAAAAAAAAAAAAAAAAAAAAAAAAAAAAAAAAAAAAAAAAAAAAAAAAAAAAAAAAAAAAAAAAAAAAAAAAAAAAAAAAAAAAAAAAAAAAAAAAAAAAAAAAAAAAAAAAAAAAAAAAAAAAAAAAAAAAAAAAAAAAAAAAAAAAAAAAAAAAAAAAAAAAAAAAAAAAAAAAAAAAAAAAAAAAAAAAAAAAAAAAAAAAAAAAAAAAAAAAAAAAAAAAAAAAAAAAAAAAAAAAAAAAAAAAAAAAAAAAAAAAAAAAAAAAAAAAAAAAAAAAAAAAAAAAAAAAAAAAAAAAAAAAAAAAAAAAAAAAAAAAAAAAAAAAAAAAAAAAAAAAAAAAAAAAAAAAAAAAAAAAAAAAAAAAAAAAAAAAAAAAAAAAAAAAAAAAAAAAAAAAAAAAAAAAAAAAAAAAAAAAAAAAAAAAAAAAAAAAAAAAAAAAAAAAAAAAAAAAAAAAAAAAAAAAAAAAAAAAAAAAAAAAAAAAAAAAAAAAAAAAAAAAAAAAAAAAAAAAAAAAAAAAAAAAAAAAAAAAAAAAAAAAAAAAAAAAAAAAAAAAAAAAAAAAAAAAAAAAAAAAAAAAAAAAAAAAAAAAAAAAAAAAAAAAAAAAAAAAAAAAAAAAAAAAAAAAAAAAAAAAAAAAAAAAAAAAAAAAAAAAAAAAAAAAAAAAAAAAAAAAAAAAAAAAAAAAAAAAAAAAAAAAAAAAAAAAAAAAAAAAAAAAAAAAAAAAAAAAAAAAAAAAAAAAAAAAAAAAAAAAAAAAAAAAAAAAAAAAAAAAAAAAAAAAAAAAAAAAAAAAAAAAAAAAAAAAAAAAAAAAAAAAAAAAAAAAAAAAAAAAAAAAAAAAAAAAAAAAAAAAAAAAAAAAAAAAAAAAAAAAAAAAAAAAAAAAAAAAAAAAAAAAAAAAAAAAAAAAAAAAAAAAAAAAAAAAAAAAAAAAAAAAAAAAAAAAAAAAAAAAAAAAAAAAAAAAAAAAAAAAAAAAAAAAAAAAAAAAAAAAAAAAAAAAAAAAAAAAAAAAAAAAAAAAAAAAAAAAAAAAAAAAAAAAAAAAAAAAAAAAAAAAAAAAAAAAAAAAAAAAAAAAAAAAAAAAAAAAAAAAAAAAAAAAAAAAAAAAAAAAAAAAAAAAAAAAAAAAAAAAAAAAAAAAAAAAAAAAAAAAAAAAAAAAAAAAAAAAAAAAAAAAAAAAAAAAAAAAAAAAAAAAAAAAAAAAAAAAAAAAAAAAAAAAAAAAAAAAAAAAAAAAAAAAAAAAAAAAAAAAAAAAAAAAAAAAAAAAAAAAAAAAAAAAAAAAAAAAAAAAAAAAAAAAAAAAAAAAAAAAAAAAAAAAAAAAAAAAAAAAAAAAAAAAAAAAAAAAAAAAAAAAAAAAAAAAAAAAAAAAAAAAAAAAAAAAAAAAAAAAAAAAAAAAAAAAAAAAAAAAAAAAAAAAAAAAAAAAAAAAAAAAAAAAAAAAAAAAAAAAAAAAAAAAAAAAAAAAAAAAAAAAAAAAAAAAAAAAAAAAAAAAAAAAAAAAAAAAAAAAAAAAAAAAAAAAAAAAAAAAAAAAAAAAAAAAAAAAAAAAAAAAAAAAAAAAAAAAAAAAAAAAAAAAAAAAAAAAAAAAAAAAAAAAAAAAAAAAAAAAAAAAAAAAAAAAAAAAAAAAAAAAAAAAAAAAAAAAAAAAAAAAAAAAAAAAAAAAAAAAAAAAAAAAAAAAAAAAAAAAAAAAAAAAAAAAAAAAAAAAAAAAAAAAAAAAAAAAAAAAAAAAAAAAAAAAAAAAAAAAAAAAAAAAAAAAAAAAAAAAAAAAAAAAAAAAAAAAAAAAAAAAAAAAAAAAAAAAAAAAAAAAAAAAAAAAAAAAAAAAAAAAAAAAAAAAAAAAAAAAAAAAAAAAAAAAAAAAAAAAAAAAAAAAAAAAAAAAAAAAAAAAAAAAAAAAAAAAAAAAAAAAAAAAAAAAAAAAAAAAAAAAAAAAAAAAAAAAAAAAAAAAAAAAAAAAAAAAAAAAAAAAAAAAAAAAAAAAAAAAAAAAAAAAAAAAAAAAAAAAAAAAAAAAAAAAAAAAAAAAAAAAAAAAAAAAAAAAAAAAAAAAAAAAAAAAAAAAAAAAAAAAAAAAAAAAAAAAAAAAAAAAAAAAAAAAAAAAAAAAAAAAAAAAAAAAAAAAAAAAAAAAAAAAAAAAAAAAAAAAAAAAAAAAAAAAAAAAAAAAAAAAAAAAAAAAAAAAAAAAAAAAAAAAAAAAAAAAAAAAAAAAAAAAAAAAAAAAAAAAAAAAAAAAAAAAAAAAAAAAAAAAAAAAAAAAAAAAAAAAAAAAAAAAAAAAAAAAAAAAAAAAAAAAAAAAAAAAAAAAAAAAAAAAAAAAAAAAAAAAAAAAAAAAAAAAAAAAAAAAAAAAAAAAAAAAAAAAAAAAAAAAAAAAAAAAAAAAAAAAAAAAAAAAAAAAAAAAAAAAAAAAAAAAAAAAAAAAAAAAAAAAAAAAAAAAAAAAAAAAAAAAAAAAAAAAAAAAAAAAAAAAAAAAAAAAAAAAAAAAAAAAAAAAAAAAAAAAAAAAAAAAAAAAAAAAAAAAAAAAAAAAAAAAAAAAAAAAAAAAAAAAAAAAAAAAAAAAAAAAAAAAAAAAAAAAAAAAAAAAAAAAAAAAAAAAAAAAAAAAAAAAAAAAAAAAAAAAAAAAAAAAAAAAAAAAAAAAAAAAAAAAAAAAAAAAAAAAAAAAAAAAAAAAAAAAAAAAAAAAAAAAAAAAAAAAAAAAAAAAAAAAAAAAAAAAAAAAAAAAAAAAAAAAAAAAAAAAAAAAAAAAAAAAAAAAAAAAAAAAAAAAAAAAAAAAAAAAAAAAAAAAAAAAAAAAAAAAAAAAAAAAAAAAAAAAAAAAAAAAAAAAAAAAAAAAAAAAAAAAAAAAAAAAAAAAAAAAAAAAAAAAAAAAAAAAAAAAAAAAAAAAAAAAAAAAAAAAAAAAAAAAAAAAAAAAAAAAAAAAAAAAAAAAAAAAAAAAAAAAAAAAAAAAAAAAAAAAAAAAAAAAAAAAAAAAAAAAAAAAAAAAAAAAAAAAAAAAAAAAAAAAAAAAAAAAAAAAAAAAAAAAAAAAAAAAAAAAAAAAAAAAAAAAAAAAAAAAAAAAAAAAAAAAAAAAAAAAAAAAAAAAAAAAAAAAAAAAAAAAAAAAAAAAAAAAAAAAAAAAAAAAAAAAAAAAAAAAAAAAAAAAAAAAAAAAAAAAAAAAAAAAAAAAAAAAAAAAAAAAAAAAAAAAAAAAAAAAAAAAAAAAAAAAAAAAAAAAAAAAAAAAAAAPZYQI1YVHCFsfkwIVWFWcIlr8R2jLg/xsZyuIEC2jR1+0GRYTstHrAe9tpQ1Sgz9D2pGkHl9YA6l2k+/jfpZ6pq1lQ=</c2pa:manifest></metadata>
<defs>
 <linearGradient id="c2" x1="0" y1="0" x2="0" y2="1">
  <stop offset="0%" stop-color="#16201B"/><stop offset="100%" stop-color="#080C0A"/></linearGradient>
 <linearGradient id="v2" x1="0" y1="0" x2="0" y2="1">
  <stop offset="55%" stop-color="#070A09" stop-opacity="0"/><stop offset="100%" stop-color="#070A09" stop-opacity="0.75"/></linearGradient>
 <pattern id="t2" width="6" height="6" patternUnits="userSpaceOnUse">
  <line x1="0" y1="0" x2="6" y2="0" stroke="#ECE7DC" stroke-opacity="0.04" stroke-width="1"/></pattern>
 <radialGradient id="h2"><stop offset="0%" stop-color="#B98F52" stop-opacity="0.34"/>
  <stop offset="100%" stop-color="#B98F52" stop-opacity="0"/></radialGradient>
</defs>
<rect width="1600" height="900" fill="url(#c2)"/>
<rect width="1600" height="900" fill="url(#t2)"/>
<circle cx="1330" cy="150" r="160" fill="url(#h2)" opacity="0.45"/>
<circle cx="1330" cy="150" r="56" fill="#ECE7DC" opacity="0.14"/>
<g stroke="#ECE7DC" stroke-opacity="0.08" stroke-width="1"><line x1="227" y1="248" x2="234" y2="277"/><line x1="1195" y1="457" x2="1204" y2="496"/><line x1="1377" y1="123" x2="1389" y2="173"/><line x1="1563" y1="81" x2="1573" y2="123"/><line x1="491" y1="50" x2="503" y2="98"/><line x1="1171" y1="183" x2="1186" y2="246"/><line x1="1343" y1="440" x2="1350" y2="471"/><line x1="1121" y1="21" x2="1137" y2="86"/><line x1="480" y1="318" x2="493" y2="372"/><line x1="329" y1="184" x2="337" y2="219"/><line x1="1133" y1="543" x2="1149" y2="607"/><line x1="65" y1="334" x2="77" y2="383"/><line x1="469" y1="188" x2="482" y2="241"/><line x1="579" y1="527" x2="588" y2="564"/><line x1="512" y1="277" x2="521" y2="316"/><line x1="824" y1="50" x2="836" y2="99"/><line x1="1029" y1="33" x2="1042" y2="87"/><line x1="455" y1="518" x2="466" y2="564"/><line x1="999" y1="419" x2="1012" y2="472"/><line x1="1293" y1="189" x2="1304" y2="236"/><line x1="1093" y1="382" x2="1106" y2="435"/><line x1="1133" y1="25" x2="1144" y2="72"/><line x1="1118" y1="609" x2="1133" y2="672"/><line x1="1052" y1="539" x2="1065" y2="594"/><line x1="1491" y1="540" x2="1504" y2="595"/><line x1="120" y1="92" x2="134" y2="148"/><line x1="668" y1="100" x2="681" y2="155"/><line x1="1539" y1="412" x2="1546" y2="443"/><line x1="343" y1="524" x2="353" y2="567"/><line x1="760" y1="6" x2="768" y2="40"/><line x1="879" y1="198" x2="888" y2="236"/><line x1="1" y1="559" x2="14" y2="611"/><line x1="655" y1="183" x2="667" y2="232"/><line x1="671" y1="195" x2="685" y2="251"/><line x1="15" y1="64" x2="30" y2="126"/><line x1="215" y1="206" x2="223" y2="240"/><line x1="46" y1="199" x2="59" y2="253"/><line x1="189" y1="151" x2="205" y2="216"/><line x1="883" y1="44" x2="891" y2="79"/><line x1="960" y1="536" x2="969" y2="572"/><line x1="1137" y1="291" x2="1151" y2="349"/><line x1="915" y1="67" x2="927" y2="117"/><line x1="1545" y1="113" x2="1561" y2="179"/><line x1="470" y1="122" x2="477" y2="151"/><line x1="322" y1="512" x2="334" y2="562"/><line x1="1239" y1="65" x2="1251" y2="114"/><line x1="139" y1="175" x2="155" y2="241"/><line x1="829" y1="275" x2="838" y2="314"/><line x1="25" y1="78" x2="35" y2="118"/><line x1="661" y1="120" x2="671" y2="161"/><line x1="1034" y1="261" x2="1048" y2="320"/><line x1="79" y1="184" x2="86" y2="213"/><line x1="505" y1="99" x2="521" y2="164"/><line x1="902" y1="212" x2="915" y2="265"/><line x1="644" y1="120" x2="659" y2="181"/><line x1="309" y1="39" x2="319" y2="82"/><line x1="713" y1="33" x2="723" y2="74"/><line x1="356" y1="501" x2="369" y2="553"/><line x1="40" y1="429" x2="54" y2="486"/><line x1="459" y1="254" x2="469" y2="296"/><line x1="170" y1="272" x2="178" y2="304"/><line x1="1303" y1="579" x2="1312" y2="617"/><line x1="305" y1="326" x2="312" y2="357"/><line x1="1" y1="510" x2="10" y2="548"/><line x1="1176" y1="286" x2="1183" y2="316"/><line x1="936" y1="30" x2="947" y2="75"/><line x1="1509" y1="4" x2="1519" y2="45"/><line x1="1234" y1="463" x2="1244" y2="505"/><line x1="847" y1="547" x2="860" y2="602"/><line x1="226" y1="363" x2="238" y2="412"/><line x1="470" y1="9" x2="483" y2="61"/><line x1="1185" y1="109" x2="1194" y2="148"/><line x1="1583" y1="564" x2="1595" y2="615"/><line x1="511" y1="525" x2="522" y2="569"/><line x1="325" y1="265" x2="336" y2="310"/><line x1="1016" y1="162" x2="1028" y2="212"/><line x1="1566" y1="522" x2="1580" y2="581"/><line x1="1366" y1="511" x2="1375" y2="547"/><line x1="1043" y1="195" x2="1057" y2="254"/><line x1="770" y1="351" x2="778" y2="383"/><line x1="732" y1="539" x2="742" y2="579"/><line x1="1387" y1="165" x2="1395" y2="198"/><line x1="43" y1="388" x2="55" y2="437"/><line x1="423" y1="55" x2="438" y2="116"/><line x1="1014" y1="156" x2="1024" y2="196"/><line x1="1082" y1="370" x2="1098" y2="436"/><line x1="-59" y1="539" x2="-47" y2="587"/><line x1="1512" y1="22" x2="1520" y2="57"/><line x1="977" y1="52" x2="985" y2="84"/><line x1="141" y1="584" x2="149" y2="616"/><line x1="305" y1="263" x2="320" y2="323"/><line x1="560" y1="320" x2="573" y2="374"/><line x1="1117" y1="538" x2="1132" y2="601"/><line x1="620" y1="329" x2="627" y2="360"/><line x1="419" y1="524" x2="431" y2="572"/><line x1="1330" y1="288" x2="1337" y2="316"/><line x1="428" y1="248" x2="435" y2="279"/><line x1="181" y1="322" x2="192" y2="369"/><line x1="-12" y1="323" x2="-4" y2="358"/><line x1="151" y1="455" x2="163" y2="504"/><line x1="299" y1="163" x2="313" y2="221"/><line x1="522" y1="424" x2="535" y2="477"/><line x1="665" y1="143" x2="678" y2="196"/><line x1="568" y1="240" x2="583" y2="302"/><line x1="405" y1="383" x2="412" y2="413"/><line x1="890" y1="286" x2="905" y2="346"/><line x1="1051" y1="222" x2="1059" y2="255"/><line x1="202" y1="244" x2="213" y2="291"/><line x1="1079" y1="142" x2="1093" y2="198"/><line x1="40" y1="263" x2="50" y2="306"/><line x1="252" y1="116" x2="267" y2="179"/><line x1="924" y1="334" x2="933" y2="372"/><line x1="973" y1="385" x2="981" y2="417"/><line x1="1321" y1="347" x2="1331" y2="388"/><line x1="719" y1="135" x2="735" y2="200"/><line x1="879" y1="444" x2="894" y2="506"/><line x1="39" y1="404" x2="53" y2="461"/><line x1="1594" y1="450" x2="1606" y2="501"/><line x1="367" y1="292" x2="374" y2="320"/><line x1="107" y1="118" x2="116" y2="155"/><line x1="868" y1="81" x2="878" y2="122"/><line x1="1093" y1="483" x2="1104" y2="528"/><line x1="1229" y1="128" x2="1236" y2="157"/><line x1="1500" y1="165" x2="1516" y2="230"/><line x1="1553" y1="310" x2="1568" y2="372"/><line x1="430" y1="600" x2="440" y2="640"/><line x1="1563" y1="345" x2="1576" y2="398"/><line x1="859" y1="570" x2="868" y2="609"/><line x1="1528" y1="415" x2="1542" y2="471"/><line x1="1079" y1="435" x2="1090" y2="479"/><line x1="1532" y1="213" x2="1542" y2="256"/><line x1="401" y1="542" x2="412" y2="587"/><line x1="1336" y1="298" x2="1352" y2="362"/><line x1="34" y1="616" x2="44" y2="659"/><line x1="1190" y1="567" x2="1200" y2="610"/><line x1="666" y1="471" x2="678" y2="522"/><line x1="192" y1="594" x2="202" y2="636"/><line x1="653" y1="425" x2="665" y2="476"/><line x1="202" y1="141" x2="209" y2="171"/><line x1="1067" y1="619" x2="1082" y2="679"/><line x1="570" y1="111" x2="579" y2="147"/><line x1="1592" y1="521" x2="1602" y2="563"/><line x1="751" y1="133" x2="759" y2="167"/><line x1="702" y1="517" x2="713" y2="561"/><line x1="-35" y1="9" x2="-26" y2="47"/><line x1="844" y1="343" x2="853" y2="381"/><line x1="930" y1="167" x2="945" y2="227"/><line x1="1164" y1="164" x2="1172" y2="198"/><line x1="475" y1="379" x2="483" y2="414"/><line x1="915" y1="174" x2="924" y2="213"/><line x1="1403" y1="86" x2="1418" y2="146"/><line x1="1309" y1="260" x2="1323" y2="316"/><line x1="1041" y1="461" x2="1053" y2="509"/><line x1="1368" y1="591" x2="1380" y2="639"/><line x1="407" y1="184" x2="414" y2="215"/><line x1="1197" y1="126" x2="1209" y2="177"/><line x1="83" y1="10" x2="98" y2="71"/><line x1="1047" y1="422" x2="1059" y2="471"/><line x1="821" y1="96" x2="831" y2="138"/><line x1="1584" y1="417" x2="1595" y2="461"/><line x1="26" y1="583" x2="38" y2="632"/><line x1="1197" y1="573" x2="1208" y2="618"/><line x1="240" y1="335" x2="253" y2="388"/><line x1="987" y1="98" x2="994" y2="127"/><line x1="1353" y1="358" x2="1368" y2="420"/><line x1="89" y1="161" x2="103" y2="217"/><line x1="-35" y1="462" x2="-22" y2="514"/><line x1="809" y1="75" x2="821" y2="126"/><line x1="1208" y1="28" x2="1222" y2="86"/><line x1="736" y1="217" x2="747" y2="263"/><line x1="164" y1="575" x2="173" y2="613"/><line x1="518" y1="112" x2="525" y2="142"/><line x1="890" y1="207" x2="902" y2="255"/><line x1="766" y1="186" x2="780" y2="243"/><line x1="425" y1="169" x2="433" y2="201"/><line x1="-21" y1="116" x2="-11" y2="156"/><line x1="473" y1="431" x2="487" y2="490"/><line x1="1232" y1="286" x2="1243" y2="333"/><line x1="1184" y1="366" x2="1195" y2="411"/><line x1="692" y1="317" x2="700" y2="350"/><line x1="1082" y1="480" x2="1092" y2="522"/><line x1="230" y1="193" x2="243" y2="248"/><line x1="739" y1="155" x2="747" y2="187"/><line x1="1600" y1="287" x2="1612" y2="338"/><line x1="1450" y1="11" x2="1464" y2="68"/><line x1="1016" y1="523" x2="1030" y2="581"/><line x1="328" y1="25" x2="338" y2="66"/><line x1="247" y1="318" x2="254" y2="348"/><line x1="-2" y1="504" x2="6" y2="539"/><line x1="1060" y1="358" x2="1070" y2="400"/><line x1="168" y1="233" x2="180" y2="283"/><line x1="788" y1="174" x2="797" y2="211"/><line x1="470" y1="247" x2="484" y2="305"/><line x1="1345" y1="439" x2="1353" y2="474"/><line x1="1508" y1="353" x2="1517" y2="389"/><line x1="465" y1="137" x2="473" y2="172"/><line x1="1523" y1="301" x2="1533" y2="344"/><line x1="1445" y1="363" x2="1457" y2="413"/><line x1="1387" y1="282" x2="1395" y2="314"/><line x1="1309" y1="312" x2="1322" y2="365"/></g>
<path d="M0 470 q220 -54 430 -12 q250 50 470 -22 q260 -84 700 10 L1600 900 L0 900Z" fill="#18221D"/>
<polygon points="250,240 850,560 930,330" fill="#B98F52" opacity="0.07"/>
<g stroke="#050807" stroke-width="10" fill="none"><path d="M214 640 L238 262 M286 640 L262 262 M223 480 L277 480 M230 372 L270 372"/></g>
<rect x="204" y="228" width="92" height="46" fill="#050807"/>
<circle cx="282" cy="250" r="10" fill="#B98F52"/>
<circle cx="282" cy="250" r="30" fill="#B98F52" opacity="0.20"/>
<polygon points="1350,240 750,560 670,330" fill="#B98F52" opacity="0.07"/>
<g stroke="#050807" stroke-width="10" fill="none"><path d="M1314 640 L1338 262 M1386 640 L1362 262 M1323 480 L1377 480 M1330 372 L1370 372"/></g>
<rect x="1304" y="228" width="92" height="46" fill="#050807"/>
<circle cx="1318" cy="250" r="10" fill="#B98F52"/>
<circle cx="1318" cy="250" r="30" fill="#B98F52" opacity="0.20"/>
<ellipse cx="800" cy="600" rx="760" ry="120" fill="#B98F52" opacity="0.10"/>
<ellipse cx="800" cy="596" rx="520" ry="80" fill="#B98F52" opacity="0.07"/>
<g fill="#050807"><g transform="translate(28,596) scale(1.03) rotate(-7.3)"><circle cx="0" cy="-88" r="14"/><path d="M-16 -72 q16 -9 32 0 l7 48 h-15 l-4 42 h-8 l-4 -42 h-15z"/><path d="M-16 -68 q-23 15 -27 42 l11 5 q6 -23 21 -33z"/></g><g transform="translate(94,598) scale(0.85) rotate(-8.6)"><circle cx="0" cy="-88" r="14"/><path d="M-16 -72 q16 -9 32 0 l7 48 h-15 l-4 42 h-8 l-4 -42 h-15z"/><path d="M-16 -68 q-23 15 -27 42 l11 5 q6 -23 21 -33z"/></g><g transform="translate(148,591) scale(1.01) rotate(6.7)"><circle cx="0" cy="-88" r="14"/><path d="M-16 -72 q16 -9 32 0 l7 48 h-15 l-4 42 h-8 l-4 -42 h-15z"/><path d="M-16 -68 q-23 15 -27 42 l11 5 q6 -23 21 -33z"/></g><g transform="translate(212,593) scale(0.84) rotate(-8.2)"><circle cx="0" cy="-88" r="14"/><path d="M-16 -72 q16 -9 32 0 l7 48 h-15 l-4 42 h-8 l-4 -42 h-15z"/><path d="M-16 -68 q-23 15 -27 42 l11 5 q6 -23 21 -33z"/></g><g transform="translate(254,613) scale(1.06) rotate(3.7)"><circle cx="0" cy="-88" r="14"/><path d="M-16 -72 q16 -9 32 0 l7 48 h-15 l-4 42 h-8 l-4 -42 h-15z"/><path d="M-16 -68 q-23 15 -27 42 l11 5 q6 -23 21 -33z"/></g><g transform="translate(345,614) scale(0.97) rotate(0.4)"><circle cx="0" cy="-88" r="14"/><path d="M-16 -72 q16 -9 32 0 l7 48 h-15 l-4 42 h-8 l-4 -42 h-15z"/><path d="M-16 -68 q-23 15 -27 42 l11 5 q6 -23 21 -33z"/></g><g transform="translate(382,614) scale(0.99) rotate(-5.2)"><circle cx="0" cy="-88" r="14"/><path d="M-16 -72 q16 -9 32 0 l7 48 h-15 l-4 42 h-8 l-4 -42 h-15z"/><path d="M-16 -68 q-23 15 -27 42 l11 5 q6 -23 21 -33z"/></g><g transform="translate(454,598) scale(0.82) rotate(-6.8)"><circle cx="0" cy="-88" r="14"/><path d="M-16 -72 q16 -9 32 0 l7 48 h-15 l-4 42 h-8 l-4 -42 h-15z"/><path d="M-16 -68 q-23 15 -27 42 l11 5 q6 -23 21 -33z"/></g><g transform="translate(497,614) scale(0.99) rotate(-5.3)"><circle cx="0" cy="-88" r="14"/><path d="M-16 -72 q16 -9 32 0 l7 48 h-15 l-4 42 h-8 l-4 -42 h-15z"/><path d="M-16 -68 q-23 15 -27 42 l11 5 q6 -23 21 -33z"/></g><g transform="translate(586,606) scale(0.93) rotate(9.5)"><circle cx="0" cy="-88" r="14"/><path d="M-16 -72 q16 -9 32 0 l7 48 h-15 l-4 42 h-8 l-4 -42 h-15z"/><path d="M-16 -68 q-23 15 -27 42 l11 5 q6 -23 21 -33z"/></g><g transform="translate(631,609) scale(0.92) rotate(9.5)"><circle cx="0" cy="-88" r="14"/><path d="M-16 -72 q16 -9 32 0 l7 48 h-15 l-4 42 h-8 l-4 -42 h-15z"/><path d="M-16 -68 q-23 15 -27 42 l11 5 q6 -23 21 -33z"/></g><g transform="translate(676,606) scale(0.82) rotate(3.6)"><circle cx="0" cy="-88" r="14"/><path d="M-16 -72 q16 -9 32 0 l7 48 h-15 l-4 42 h-8 l-4 -42 h-15z"/><path d="M-16 -68 q-23 15 -27 42 l11 5 q6 -23 21 -33z"/></g><g transform="translate(735,599) scale(1.14) rotate(0.4)"><circle cx="0" cy="-88" r="14"/><path d="M-16 -72 q16 -9 32 0 l7 48 h-15 l-4 42 h-8 l-4 -42 h-15z"/><path d="M-16 -68 q-23 15 -27 42 l11 5 q6 -23 21 -33z"/></g><g transform="translate(818,593) scale(0.93) rotate(0.3)"><circle cx="0" cy="-88" r="14"/><path d="M-16 -72 q16 -9 32 0 l7 48 h-15 l-4 42 h-8 l-4 -42 h-15z"/><path d="M-16 -68 q-23 15 -27 42 l11 5 q6 -23 21 -33z"/></g><g transform="translate(886,593) scale(0.93) rotate(9.0)"><circle cx="0" cy="-88" r="14"/><path d="M-16 -72 q16 -9 32 0 l7 48 h-15 l-4 42 h-8 l-4 -42 h-15z"/><path d="M-16 -68 q-23 15 -27 42 l11 5 q6 -23 21 -33z"/></g><g transform="translate(936,602) scale(0.88) rotate(2.0)"><circle cx="0" cy="-88" r="14"/><path d="M-16 -72 q16 -9 32 0 l7 48 h-15 l-4 42 h-8 l-4 -42 h-15z"/><path d="M-16 -68 q-23 15 -27 42 l11 5 q6 -23 21 -33z"/></g><g transform="translate(982,593) scale(1.16) rotate(-8.9)"><circle cx="0" cy="-88" r="14"/><path d="M-16 -72 q16 -9 32 0 l7 48 h-15 l-4 42 h-8 l-4 -42 h-15z"/><path d="M-16 -68 q-23 15 -27 42 l11 5 q6 -23 21 -33z"/></g><g transform="translate(1058,600) scale(1.09) rotate(6.7)"><circle cx="0" cy="-88" r="14"/><path d="M-16 -72 q16 -9 32 0 l7 48 h-15 l-4 42 h-8 l-4 -42 h-15z"/><path d="M-16 -68 q-23 15 -27 42 l11 5 q6 -23 21 -33z"/></g><g transform="translate(1101,598) scale(0.92) rotate(7.7)"><circle cx="0" cy="-88" r="14"/><path d="M-16 -72 q16 -9 32 0 l7 48 h-15 l-4 42 h-8 l-4 -42 h-15z"/><path d="M-16 -68 q-23 15 -27 42 l11 5 q6 -23 21 -33z"/></g><g transform="translate(1177,598) scale(1.1) rotate(-4.4)"><circle cx="0" cy="-88" r="14"/><path d="M-16 -72 q16 -9 32 0 l7 48 h-15 l-4 42 h-8 l-4 -42 h-15z"/><path d="M-16 -68 q-23 15 -27 42 l11 5 q6 -23 21 -33z"/></g><g transform="translate(1236,600) scale(1.09) rotate(-1.7)"><circle cx="0" cy="-88" r="14"/><path d="M-16 -72 q16 -9 32 0 l7 48 h-15 l-4 42 h-8 l-4 -42 h-15z"/><path d="M-16 -68 q-23 15 -27 42 l11 5 q6 -23 21 -33z"/></g><g transform="translate(1285,614) scale(1.09) rotate(-8.0)"><circle cx="0" cy="-88" r="14"/><path d="M-16 -72 q16 -9 32 0 l7 48 h-15 l-4 42 h-8 l-4 -42 h-15z"/><path d="M-16 -68 q-23 15 -27 42 l11 5 q6 -23 21 -33z"/></g><g transform="translate(1344,597) scale(1.08) rotate(-5.3)"><circle cx="0" cy="-88" r="14"/><path d="M-16 -72 q16 -9 32 0 l7 48 h-15 l-4 42 h-8 l-4 -42 h-15z"/><path d="M-16 -68 q-23 15 -27 42 l11 5 q6 -23 21 -33z"/></g><g transform="translate(1421,610) scale(0.83) rotate(-2.5)"><circle cx="0" cy="-88" r="14"/><path d="M-16 -72 q16 -9 32 0 l7 48 h-15 l-4 42 h-8 l-4 -42 h-15z"/><path d="M-16 -68 q-23 15 -27 42 l11 5 q6 -23 21 -33z"/></g><g transform="translate(1485,604) scale(0.99) rotate(5.6)"><circle cx="0" cy="-88" r="14"/><path d="M-16 -72 q16 -9 32 0 l7 48 h-15 l-4 42 h-8 l-4 -42 h-15z"/><path d="M-16 -68 q-23 15 -27 42 l11 5 q6 -23 21 -33z"/></g><g transform="translate(1519,615) scale(0.93) rotate(-0.3)"><circle cx="0" cy="-88" r="14"/><path d="M-16 -72 q16 -9 32 0 l7 48 h-15 l-4 42 h-8 l-4 -42 h-15z"/><path d="M-16 -68 q-23 15 -27 42 l11 5 q6 -23 21 -33z"/></g><g transform="translate(1605,599) scale(1.05) rotate(8.7)"><circle cx="0" cy="-88" r="14"/><path d="M-16 -72 q16 -9 32 0 l7 48 h-15 l-4 42 h-8 l-4 -42 h-15z"/><path d="M-16 -68 q-23 15 -27 42 l11 5 q6 -23 21 -33z"/></g></g>
<g stroke="#2B3B32" stroke-opacity="0.55" stroke-width="1.6"><line x1="-900" y1="900" x2="0" y2="0"/><line x1="-900" y1="0" x2="0" y2="900"/><line x1="-866" y1="900" x2="34" y2="0"/><line x1="-866" y1="0" x2="34" y2="900"/><line x1="-832" y1="900" x2="68" y2="0"/><line x1="-832" y1="0" x2="68" y2="900"/><line x1="-798" y1="900" x2="102" y2="0"/><line x1="-798" y1="0" x2="102" y2="900"/><line x1="-764" y1="900" x2="136" y2="0"/><line x1="-764" y1="0" x2="136" y2="900"/><line x1="-730" y1="900" x2="170" y2="0"/><line x1="-730" y1="0" x2="170" y2="900"/><line x1="-696" y1="900" x2="204" y2="0"/><line x1="-696" y1="0" x2="204" y2="900"/><line x1="-662" y1="900" x2="238" y2="0"/><line x1="-662" y1="0" x2="238" y2="900"/><line x1="-628" y1="900" x2="272" y2="0"/><line x1="-628" y1="0" x2="272" y2="900"/><line x1="-594" y1="900" x2="306" y2="0"/><line x1="-594" y1="0" x2="306" y2="900"/><line x1="-560" y1="900" x2="340" y2="0"/><line x1="-560" y1="0" x2="340" y2="900"/><line x1="-526" y1="900" x2="374" y2="0"/><line x1="-526" y1="0" x2="374" y2="900"/><line x1="-492" y1="900" x2="408" y2="0"/><line x1="-492" y1="0" x2="408" y2="900"/><line x1="-458" y1="900" x2="442" y2="0"/><line x1="-458" y1="0" x2="442" y2="900"/><line x1="-424" y1="900" x2="476" y2="0"/><line x1="-424" y1="0" x2="476" y2="900"/><line x1="-390" y1="900" x2="510" y2="0"/><line x1="-390" y1="0" x2="510" y2="900"/><line x1="-356" y1="900" x2="544" y2="0"/><line x1="-356" y1="0" x2="544" y2="900"/><line x1="-322" y1="900" x2="578" y2="0"/><line x1="-322" y1="0" x2="578" y2="900"/><line x1="-288" y1="900" x2="612" y2="0"/><line x1="-288" y1="0" x2="612" y2="900"/><line x1="-254" y1="900" x2="646" y2="0"/><line x1="-254" y1="0" x2="646" y2="900"/><line x1="-220" y1="900" x2="680" y2="0"/><line x1="-220" y1="0" x2="680" y2="900"/><line x1="-186" y1="900" x2="714" y2="0"/><line x1="-186" y1="0" x2="714" y2="900"/><line x1="-152" y1="900" x2="748" y2="0"/><line x1="-152" y1="0" x2="748" y2="900"/><line x1="-118" y1="900" x2="782" y2="0"/><line x1="-118" y1="0" x2="782" y2="900"/><line x1="-84" y1="900" x2="816" y2="0"/><line x1="-84" y1="0" x2="816" y2="900"/><line x1="-50" y1="900" x2="850" y2="0"/><line x1="-50" y1="0" x2="850" y2="900"/><line x1="-16" y1="900" x2="884" y2="0"/><line x1="-16" y1="0" x2="884" y2="900"/><line x1="18" y1="900" x2="918" y2="0"/><line x1="18" y1="0" x2="918" y2="900"/><line x1="52" y1="900" x2="952" y2="0"/><line x1="52" y1="0" x2="952" y2="900"/><line x1="86" y1="900" x2="986" y2="0"/><line x1="86" y1="0" x2="986" y2="900"/><line x1="120" y1="900" x2="1020" y2="0"/><line x1="120" y1="0" x2="1020" y2="900"/><line x1="154" y1="900" x2="1054" y2="0"/><line x1="154" y1="0" x2="1054" y2="900"/><line x1="188" y1="900" x2="1088" y2="0"/><line x1="188" y1="0" x2="1088" y2="900"/><line x1="222" y1="900" x2="1122" y2="0"/><line x1="222" y1="0" x2="1122" y2="900"/><line x1="256" y1="900" x2="1156" y2="0"/><line x1="256" y1="0" x2="1156" y2="900"/><line x1="290" y1="900" x2="1190" y2="0"/><line x1="290" y1="0" x2="1190" y2="900"/><line x1="324" y1="900" x2="1224" y2="0"/><line x1="324" y1="0" x2="1224" y2="900"/><line x1="358" y1="900" x2="1258" y2="0"/><line x1="358" y1="0" x2="1258" y2="900"/><line x1="392" y1="900" x2="1292" y2="0"/><line x1="392" y1="0" x2="1292" y2="900"/><line x1="426" y1="900" x2="1326" y2="0"/><line x1="426" y1="0" x2="1326" y2="900"/><line x1="460" y1="900" x2="1360" y2="0"/><line x1="460" y1="0" x2="1360" y2="900"/><line x1="494" y1="900" x2="1394" y2="0"/><line x1="494" y1="0" x2="1394" y2="900"/><line x1="528" y1="900" x2="1428" y2="0"/><line x1="528" y1="0" x2="1428" y2="900"/><line x1="562" y1="900" x2="1462" y2="0"/><line x1="562" y1="0" x2="1462" y2="900"/><line x1="596" y1="900" x2="1496" y2="0"/><line x1="596" y1="0" x2="1496" y2="900"/><line x1="630" y1="900" x2="1530" y2="0"/><line x1="630" y1="0" x2="1530" y2="900"/><line x1="664" y1="900" x2="1564" y2="0"/><line x1="664" y1="0" x2="1564" y2="900"/><line x1="698" y1="900" x2="1598" y2="0"/><line x1="698" y1="0" x2="1598" y2="900"/><line x1="732" y1="900" x2="1632" y2="0"/><line x1="732" y1="0" x2="1632" y2="900"/><line x1="766" y1="900" x2="1666" y2="0"/><line x1="766" y1="0" x2="1666" y2="900"/><line x1="800" y1="900" x2="1700" y2="0"/><line x1="800" y1="0" x2="1700" y2="900"/><line x1="834" y1="900" x2="1734" y2="0"/><line x1="834" y1="0" x2="1734" y2="900"/><line x1="868" y1="900" x2="1768" y2="0"/><line x1="868" y1="0" x2="1768" y2="900"/><line x1="902" y1="900" x2="1802" y2="0"/><line x1="902" y1="0" x2="1802" y2="900"/><line x1="936" y1="900" x2="1836" y2="0"/><line x1="936" y1="0" x2="1836" y2="900"/><line x1="970" y1="900" x2="1870" y2="0"/><line x1="970" y1="0" x2="1870" y2="900"/><line x1="1004" y1="900" x2="1904" y2="0"/><line x1="1004" y1="0" x2="1904" y2="900"/><line x1="1038" y1="900" x2="1938" y2="0"/><line x1="1038" y1="0" x2="1938" y2="900"/><line x1="1072" y1="900" x2="1972" y2="0"/><line x1="1072" y1="0" x2="1972" y2="900"/><line x1="1106" y1="900" x2="2006" y2="0"/><line x1="1106" y1="0" x2="2006" y2="900"/><line x1="1140" y1="900" x2="2040" y2="0"/><line x1="1140" y1="0" x2="2040" y2="900"/><line x1="1174" y1="900" x2="2074" y2="0"/><line x1="1174" y1="0" x2="2074" y2="900"/><line x1="1208" y1="900" x2="2108" y2="0"/><line x1="1208" y1="0" x2="2108" y2="900"/><line x1="1242" y1="900" x2="2142" y2="0"/><line x1="1242" y1="0" x2="2142" y2="900"/><line x1="1276" y1="900" x2="2176" y2="0"/><line x1="1276" y1="0" x2="2176" y2="900"/><line x1="1310" y1="900" x2="2210" y2="0"/><line x1="1310" y1="0" x2="2210" y2="900"/><line x1="1344" y1="900" x2="2244" y2="0"/><line x1="1344" y1="0" x2="2244" y2="900"/><line x1="1378" y1="900" x2="2278" y2="0"/><line x1="1378" y1="0" x2="2278" y2="900"/><line x1="1412" y1="900" x2="2312" y2="0"/><line x1="1412" y1="0" x2="2312" y2="900"/><line x1="1446" y1="900" x2="2346" y2="0"/><line x1="1446" y1="0" x2="2346" y2="900"/><line x1="1480" y1="900" x2="2380" y2="0"/><line x1="1480" y1="0" x2="2380" y2="900"/><line x1="1514" y1="900" x2="2414" y2="0"/><line x1="1514" y1="0" x2="2414" y2="900"/><line x1="1548" y1="900" x2="2448" y2="0"/><line x1="1548" y1="0" x2="2448" y2="900"/><line x1="1582" y1="900" x2="2482" y2="0"/><line x1="1582" y1="0" x2="2482" y2="900"/><line x1="1616" y1="900" x2="2516" y2="0"/><line x1="1616" y1="0" x2="2516" y2="900"/><line x1="1650" y1="900" x2="2550" y2="0"/><line x1="1650" y1="0" x2="2550" y2="900"/></g>
<rect x="60" y="96" width="13" height="804" fill="#050807"/>
<line x1="66" y1="96" x2="66" y2="900" stroke="#2B3B32" stroke-width="1.5"/>
<rect x="360" y="96" width="13" height="804" fill="#050807"/>
<line x1="366" y1="96" x2="366" y2="900" stroke="#2B3B32" stroke-width="1.5"/>
<rect x="660" y="96" width="13" height="804" fill="#050807"/>
<line x1="666" y1="96" x2="666" y2="900" stroke="#2B3B32" stroke-width="1.5"/>
<rect x="960" y="96" width="13" height="804" fill="#050807"/>
<line x1="966" y1="96" x2="966" y2="900" stroke="#2B3B32" stroke-width="1.5"/>
<rect x="1260" y="96" width="13" height="804" fill="#050807"/>
<line x1="1266" y1="96" x2="1266" y2="900" stroke="#2B3B32" stroke-width="1.5"/>
<rect x="1560" y="96" width="13" height="804" fill="#050807"/>
<line x1="1566" y1="96" x2="1566" y2="900" stroke="#2B3B32" stroke-width="1.5"/>
<line x1="0" y1="118" x2="1600" y2="118" stroke="#2B3B32" stroke-width="3"/>
<g fill="none" stroke="#2B3B32" stroke-opacity="0.6" stroke-width="2"><path d="M0 118 q11 -30 23 0 q11 30 23 0"/><path d="M46 118 q11 -30 23 0 q11 30 23 0"/><path d="M92 118 q11 -30 23 0 q11 30 23 0"/><path d="M138 118 q11 -30 23 0 q11 30 23 0"/><path d="M184 118 q11 -30 23 0 q11 30 23 0"/><path d="M230 118 q11 -30 23 0 q11 30 23 0"/><path d="M276 118 q11 -30 23 0 q11 30 23 0"/><path d="M322 118 q11 -30 23 0 q11 30 23 0"/><path d="M368 118 q11 -30 23 0 q11 30 23 0"/><path d="M414 118 q11 -30 23 0 q11 30 23 0"/><path d="M460 118 q11 -30 23 0 q11 30 23 0"/><path d="M506 118 q11 -30 23 0 q11 30 23 0"/><path d="M552 118 q11 -30 23 0 q11 30 23 0"/><path d="M598 118 q11 -30 23 0 q11 30 23 0"/><path d="M644 118 q11 -30 23 0 q11 30 23 0"/><path d="M690 118 q11 -30 23 0 q11 30 23 0"/><path d="M736 118 q11 -30 23 0 q11 30 23 0"/><path d="M782 118 q11 -30 23 0 q11 30 23 0"/><path d="M828 118 q11 -30 23 0 q11 30 23 0"/><path d="M874 118 q11 -30 23 0 q11 30 23 0"/><path d="M920 118 q11 -30 23 0 q11 30 23 0"/><path d="M966 118 q11 -30 23 0 q11 30 23 0"/><path d="M1012 118 q11 -30 23 0 q11 30 23 0"/><path d="M1058 118 q11 -30 23 0 q11 30 23 0"/><path d="M1104 118 q11 -30 23 0 q11 30 23 0"/><path d="M1150 118 q11 -30 23 0 q11 30 23 0"/><path d="M1196 118 q11 -30 23 0 q11 30 23 0"/><path d="M1242 118 q11 -30 23 0 q11 30 23 0"/><path d="M1288 118 q11 -30 23 0 q11 30 23 0"/><path d="M1334 118 q11 -30 23 0 q11 30 23 0"/><path d="M1380 118 q11 -30 23 0 q11 30 23 0"/><path d="M1426 118 q11 -30 23 0 q11 30 23 0"/><path d="M1472 118 q11 -30 23 0 q11 30 23 0"/><path d="M1518 118 q11 -30 23 0 q11 30 23 0"/><path d="M1564 118 q11 -30 23 0 q11 30 23 0"/></g>
<rect width="1600" height="900" fill="url(#v2)"/>
</svg>